<svg width="121" height="111" viewBox="0 0 121 111" fill="none" xmlns="http://www.w3.org/2000/svg">
<ellipse cx="58.8521" cy="55.5" rx="58.8521" ry="55.5" fill="#EDDF6A"/>
<ellipse cx="62.148" cy="55.5" rx="58.8521" ry="55.5" fill="#FBE41A"/>
<g filter="url(#filter0_i_376_9977)">
<ellipse cx="61.2061" cy="55.7215" rx="52.9669" ry="49.95" fill="#FBE41A"/>
</g>
<path fill-rule="evenodd" clip-rule="evenodd" d="M14.8306 80.8076C24.1318 95.5539 41.3133 105.45 60.9706 105.45C80.6279 105.45 97.8094 95.5539 107.111 80.8076H14.8306Z" fill="#EDDF6A"/>
<path d="M50.34 87.03V93H49.78V86H50.34L54.14 91.97V86H54.7V93H54.14L50.34 87.03ZM59.7239 93C59.0039 93.0733 58.4839 93.11 58.1639 93.11C57.4639 93.11 56.9072 92.98 56.4939 92.72C56.0806 92.46 55.8739 91.99 55.8739 91.31V90.48C55.8739 89.82 56.1039 89.3767 56.5639 89.15C56.7839 89.0367 57.0639 88.98 57.4039 88.98C57.7172 88.98 58.0339 89.0333 58.3539 89.14C58.6739 89.24 58.9439 89.3733 59.1639 89.54C59.1639 89.1733 59.0572 88.8833 58.8439 88.67C58.6306 88.45 58.2206 88.34 57.6139 88.34L57.6439 87.91C58.2839 87.91 58.7539 88.0133 59.0539 88.22C59.3606 88.42 59.5472 88.66 59.6139 88.94C59.6872 89.22 59.7239 89.58 59.7239 90.02V93ZM59.1639 89.97C58.8906 89.8433 58.5972 89.7333 58.2839 89.64C57.9772 89.5467 57.6939 89.5 57.4339 89.5C56.7606 89.5 56.4239 89.8367 56.4239 90.51V91.38C56.4239 91.8133 56.5739 92.13 56.8739 92.33C57.1739 92.5233 57.6006 92.62 58.1539 92.62C58.4406 92.62 58.7772 92.5933 59.1639 92.54V89.97ZM66.554 89.57C66.554 89.17 66.4473 88.8767 66.234 88.69C66.0273 88.5033 65.7573 88.41 65.424 88.41C65.164 88.41 64.874 88.4667 64.554 88.58L64.184 88.76C64.2973 88.9867 64.354 89.2467 64.354 89.54V93H63.804V89.57C63.804 89.1633 63.6973 88.87 63.484 88.69C63.2773 88.5033 63.004 88.41 62.664 88.41C62.4573 88.41 62.244 88.4433 62.024 88.51C61.804 88.57 61.604 88.65 61.424 88.75V93H60.864V87.99H61.424L61.374 88.31C61.814 88.05 62.264 87.92 62.724 87.92C62.964 87.92 63.1873 87.96 63.394 88.04C63.6073 88.12 63.7873 88.2367 63.934 88.39C64.0273 88.3367 64.1673 88.2633 64.354 88.17C64.7473 87.99 65.1273 87.9 65.494 87.9C65.9673 87.9 66.354 88.0467 66.654 88.34C66.954 88.6267 67.104 89.0267 67.104 89.54V93H66.554V89.57ZM71.1375 92.65C70.8975 92.8033 70.6242 92.92 70.3175 93C70.0108 93.08 69.7042 93.12 69.3975 93.12C68.9042 93.12 68.5108 93 68.2175 92.76C67.9308 92.5133 67.7875 92.1467 67.7875 91.66V89.61C67.7875 89.07 67.9542 88.65 68.2875 88.35C68.6275 88.05 69.0742 87.9 69.6275 87.9C70.1808 87.9 70.6108 88.05 70.9175 88.35C71.2308 88.6433 71.3875 89.0533 71.3875 89.58V90.88L68.3475 91.05V91.66C68.3475 91.98 68.4508 92.22 68.6575 92.38C68.8642 92.54 69.1342 92.62 69.4675 92.62C69.9342 92.62 70.4175 92.4867 70.9175 92.22L71.1375 92.65ZM70.8275 89.51C70.8275 89.0967 70.6975 88.8067 70.4375 88.64C70.1775 88.4667 69.9042 88.38 69.6175 88.38C69.2508 88.38 68.9475 88.48 68.7075 88.68C68.4675 88.88 68.3475 89.1933 68.3475 89.62V90.5L70.8275 90.38V89.51Z" fill="black"/>
<defs>
<filter id="filter0_i_376_9977" x="8.23926" y="5.77148" width="105.934" height="103.9" filterUnits="userSpaceOnUse" color-interpolation-filters="sRGB">
<feFlood flood-opacity="0" result="BackgroundImageFix"/>
<feBlend mode="normal" in="SourceGraphic" in2="BackgroundImageFix" result="shape"/>
<feColorMatrix in="SourceAlpha" type="matrix" values="0 0 0 0 0 0 0 0 0 0 0 0 0 0 0 0 0 0 127 0" result="hardAlpha"/>
<feOffset dy="4"/>
<feGaussianBlur stdDeviation="5"/>
<feComposite in2="hardAlpha" operator="arithmetic" k2="-1" k3="1"/>
<feColorMatrix type="matrix" values="0 0 0 0 0 0 0 0 0 0 0 0 0 0 0 0 0 0 0.25 0"/>
<feBlend mode="normal" in2="shape" result="effect1_innerShadow_376_9977"/>
</filter>
</defs>
</svg>
